<?xml version="1.0" standalone="no"?>
<!DOCTYPE svg PUBLIC "-//W3C//DTD SVG 20010904//EN"
 "http://www.w3.org/TR/2001/REC-SVG-20010904/DTD/svg10.dtd">
<svg version="1.0" xmlns="http://www.w3.org/2000/svg"
 width="300.000000pt" height="300.000000pt" viewBox="0 0 300.000000 300.000000"
 preserveAspectRatio="xMidYMid meet">
<metadata>
Created by potrace 1.10, written by Peter Selinger 2001-2011
</metadata>
<g transform="translate(0.000000,300.000000) scale(0.100000,-0.100000)"
fill="#000000" stroke="none">
<path d="M926 2593 c-40 -116 -1 -291 83 -380 l21 -22 -53 -49 c-28 -28 -78
-72 -109 -98 -32 -27 -58 -51 -58 -54 0 -3 15 -12 34 -18 19 -7 91 -40 160
-72 l126 -60 -11 -27 c-6 -16 -28 -75 -49 -133 -61 -167 -118 -311 -135 -336
-28 -43 -16 -43 51 -3 69 42 83 44 65 10 -17 -30 -171 -472 -171 -488 0 -8 13
-13 38 -13 35 0 40 4 80 64 73 111 193 207 332 262 33 14 129 40 213 60 243
55 317 85 444 180 111 83 182 183 224 314 17 54 17 54 28 28 39 -102 45 -144
45 -308 0 -153 -2 -171 -27 -245 -37 -110 -94 -209 -164 -281 l-58 -62 -50 7
c-65 8 -138 7 -195 -3 l-45 -8 80 53 c81 55 101 84 72 108 -12 9 -23 4 -58
-25 -49 -41 -166 -99 -219 -109 -27 -5 -20 1 35 29 39 19 79 43 88 54 35 38
-5 69 -78 60 -19 -2 -35 -2 -34 2 0 3 21 19 47 35 78 50 63 94 -33 95 -45 0
-48 1 -30 14 11 8 56 26 100 41 44 15 118 45 164 66 96 45 91 43 91 25 0 -23
41 -66 63 -66 30 0 75 39 82 71 5 19 0 34 -20 58 l-27 32 53 57 c29 31 54 59
56 61 1 2 9 -2 18 -9 13 -11 15 -7 14 31 0 24 -4 52 -8 63 -6 15 -10 11 -26
-25 -60 -132 -230 -258 -443 -329 -132 -43 -229 -85 -270 -117 l-37 -28 33 -3
c18 -2 64 4 102 12 72 17 160 21 159 9 0 -5 -44 -29 -97 -56 -175 -86 -176
-104 -5 -79 105 15 148 12 113 -9 -54 -33 -140 -84 -164 -98 -16 -9 -31 -21
-33 -27 -4 -12 521 -10 562 3 60 19 175 202 225 358 32 99 39 311 15 421 -26
120 -111 324 -135 324 -4 0 -13 -34 -19 -76 -13 -89 -52 -210 -86 -268 -28
-47 -121 -153 -128 -146 -2 3 -30 84 -62 180 -32 96 -60 178 -62 182 -4 8 135
80 237 123 36 15 67 29 69 31 2 2 -43 47 -99 101 l-102 98 44 66 c66 98 80
191 52 339 -12 64 -42 65 -173 8 -77 -34 -109 -55 -160 -104 l-63 -62 -40 14
c-53 18 -184 18 -237 -1 l-42 -14 -57 57 c-67 67 -198 135 -278 146 l-52 6
-16 -47z m179 -57 c39 -18 94 -54 123 -80 l52 -48 -32 -22 -33 -23 -36 38
c-19 21 -60 50 -90 63 l-54 26 -3 -38 c-5 -51 13 -106 48 -146 l29 -33 -23
-22 -22 -21 -30 42 c-53 75 -71 149 -59 248 7 58 8 60 33 54 15 -3 59 -21 97
-38z m891 8 c18 -99 -10 -223 -67 -293 l-20 -24 -24 23 -24 23 23 18 c29 23
53 80 62 148 5 36 3 51 -5 51 -28 0 -112 -53 -144 -90 l-35 -42 -31 23 c-38
28 -31 43 42 98 60 45 106 69 162 87 55 17 53 18 61 -22z m-821 -174 c20 0 14
-38 -10 -60 -28 -26 -52 -21 -64 12 -5 13 -12 23 -17 23 -8 -1 -33 58 -34 79
0 4 7 6 15 3 8 -4 17 -2 20 4 4 5 23 -6 43 -26 20 -19 41 -35 47 -35z m724 -7
c-6 -20 -22 -48 -35 -62 l-24 -26 -30 31 c-21 20 -29 36 -24 47 3 9 10 15 15
12 4 -3 13 4 19 15 6 11 27 28 48 39 37 19 37 19 40 0 2 -11 -2 -36 -9 -56z
m-240 1 c66 -32 97 -58 236 -197 l160 -161 -261 -133 c-213 -108 -269 -133
-303 -133 -34 0 -97 27 -313 132 l-270 132 159 156 c217 212 292 254 442 245
61 -3 89 -11 150 -41z m-338 -619 c93 -46 143 -65 170 -65 28 0 75 18 166 65
70 35 128 63 128 62 1 -1 26 -69 55 -152 29 -82 59 -162 67 -177 18 -36 10
-35 -48 7 -55 39 -60 32 -29 -36 11 -24 20 -49 20 -54 0 -15 -120 -59 -230
-85 -240 -54 -276 -65 -351 -101 -91 -44 -143 -78 -219 -143 -30 -25 -55 -44
-58 -42 -3 4 15 55 130 365 21 58 38 108 38 113 0 11 -73 -26 -89 -46 -27 -32
-29 -14 -5 47 26 63 103 272 110 295 2 6 6 12 8 12 3 0 64 -29 137 -65z m629
-304 c0 -16 -51 -42 -70 -36 -29 9 -24 25 10 32 17 3 33 10 36 14 6 10 24 2
24 -10z m138 -93 c23 -29 -36 -101 -66 -82 -26 17 -26 43 -1 70 25 26 51 31
67 12z m-1088 -356 c0 -16 -48 -73 -54 -64 -10 17 18 72 36 72 10 0 18 -4 18
-8z"/>
<path d="M1000 2530 c0 -5 8 -10 18 -10 23 0 114 -43 155 -73 52 -39 65 -41
26 -5 -39 35 -156 98 -183 98 -9 0 -16 -4 -16 -10z"/>
<path d="M1908 2525 c-41 -15 -79 -38 -123 -73 -54 -44 -49 -55 7 -14 56 43
132 81 160 82 9 0 20 5 23 10 8 14 -22 11 -67 -5z"/>
<path d="M1372 2352 c-29 -11 -76 -35 -105 -55 -61 -42 -294 -273 -285 -283 4
-3 46 6 95 20 48 14 102 26 118 26 26 1 28 2 11 11 -10 6 -43 9 -72 7 -30 -3
-54 -1 -54 4 0 4 37 45 83 91 91 93 189 154 258 163 24 3 50 7 57 9 21 7 113
-14 161 -37 62 -31 157 -106 214 -169 26 -29 45 -54 43 -56 -4 -4 -146 -11
-146 -7 0 2 10 19 22 40 21 35 21 37 3 50 -10 8 -33 16 -51 20 -79 15 -146
-81 -153 -218 -3 -77 -3 -78 -24 -63 -27 19 -84 19 -119 1 l-28 -15 0 63 c0
80 -23 158 -59 199 -23 25 -37 32 -67 32 -39 0 -104 -22 -104 -34 0 -11 100
-113 140 -142 31 -23 35 -32 40 -85 4 -50 8 -59 26 -62 11 -2 28 -16 37 -31
35 -60 111 -61 145 -1 9 16 26 31 37 32 16 2 21 12 23 52 4 59 21 87 77 125
42 28 43 28 111 16 38 -6 95 -20 126 -30 32 -10 61 -15 65 -11 5 5 -55 70
-133 145 -173 168 -233 203 -359 208 -60 3 -93 -1 -133 -15z m-65 -218 c3 -8
-2 -23 -11 -32 -15 -15 -17 -15 -32 0 -21 21 -11 48 16 48 11 0 23 -7 27 -16z
m411 -12 c4 -28 -24 -40 -45 -19 -14 13 -14 19 -3 32 18 22 44 15 48 -13z
m-363 -52 c-3 -5 -1 -11 5 -15 17 -11 11 -23 -10 -18 -30 8 -47 32 -30 43 15
10 42 2 35 -10z m285 -22 c-28 -23 -34 -19 -20 17 9 23 13 25 26 14 14 -12 14
-15 -6 -31z m-115 -163 c0 -5 -17 -11 -37 -13 -36 -3 -47 5 -31 22 11 10 68 3
68 -9z"/>
<path d="M1740 1612 c0 -22 54 -194 69 -219 9 -16 10 -16 11 3 0 12 -7 38 -16
59 -8 21 -14 50 -12 65 1 15 -3 34 -9 41 -6 8 -14 26 -18 42 -8 30 -25 37 -25
9z"/>
<path d="M1540 1601 c-45 -5 -63 -13 -90 -39 -19 -18 -54 -47 -77 -65 -23 -18
-43 -35 -43 -39 0 -4 28 -5 62 -1 l61 6 -56 -70 c-53 -65 -71 -99 -47 -91 5 2
70 48 144 103 l135 100 -54 3 c-30 2 -55 6 -55 10 0 5 23 25 50 46 52 40 58
47 38 45 -7 -1 -38 -5 -68 -8z m-35 -98 c17 -25 17 -27 -1 -40 -15 -11 -21
-10 -40 8 -18 17 -21 26 -13 40 14 27 34 24 54 -8z"/>
<path d="M1179 1553 c-18 -20 -28 -33 -21 -29 8 5 18 1 26 -10 12 -16 14 -15
23 12 6 16 14 37 18 47 12 28 -9 20 -46 -20z"/>
<path d="M1976 1853 c-14 -14 -4 -34 21 -44 16 -6 36 -18 46 -27 16 -14 19
-14 34 1 11 11 14 20 8 26 -16 15 -103 50 -109 44z"/>
<path d="M898 1829 c-41 -21 -41 -20 -32 -43 8 -22 18 -20 69 10 29 16 42 30
38 40 -7 19 -31 17 -75 -7z"/>
<path d="M935 1740 c-17 -19 -15 -50 3 -50 17 0 44 39 39 55 -8 20 -20 19 -42
-5z"/>
<path d="M1973 1744 c-3 -9 3 -25 16 -37 20 -20 22 -21 38 -4 17 17 17 19 -6
38 -28 23 -40 24 -48 3z"/>
<path d="M2242 1527 c-12 -21 -17 -37 -12 -37 14 0 43 47 38 61 -2 7 -14 -4
-26 -24z"/>
<path d="M1420 910 c-52 -10 -161 -20 -241 -23 -81 -2 -152 -8 -158 -11 -29
-18 11 -24 157 -24 86 0 146 3 132 5 -37 7 -45 19 -13 20 36 0 196 31 226 43
33 13 4 10 -103 -10z m-170 -40 c-8 -5 -31 -10 -50 -10 -26 0 -31 3 -20 10 8
5 31 10 50 10 26 0 31 -3 20 -10z"/>
</g>
</svg>
